<svg id="electric-car" enable-background="new 0 0 300 300" height="512" viewBox="0 0 300 300" width="512" xmlns="http://www.w3.org/2000/svg"><g><circle cx="160" cy="168" fill="#e1f4f4" r="86"/><g><path d="m158 226h108v-28c0-7.589-6.696-15.508-14.271-15.953-11.427-.672-52.028-36.047-85.729-36.047h-8" fill="#ffce56"/><path d="m266 230h-108c-2.209 0-4-1.791-4-4s1.791-4 4-4h104v-24c0-5.725-5.203-11.648-10.506-11.961-5.045-.295-12.779-4.916-23.486-11.309-17.475-10.437-41.408-24.73-62.008-24.73h-8c-2.209 0-4-1.791-4-4s1.791-4 4-4h8c22.807 0 47.834 14.947 66.109 25.861 8.24 4.922 16.762 10.01 19.854 10.193 9.439.555 18.037 10.061 18.037 19.946v28c0 2.209-1.791 4-4 4z" fill="#4c241d"/></g><g><circle cx="225.349" cy="216.803" fill="#6b4f5b" r="19.197"/><path d="m225.35 240c-12.791 0-23.197-10.406-23.197-23.197 0-12.789 10.406-23.195 23.197-23.195s23.197 10.406 23.197 23.195c0 12.791-10.406 23.197-23.197 23.197zm0-38.393c-8.379 0-15.197 6.816-15.197 15.195s6.818 15.198 15.197 15.198 15.197-6.818 15.197-15.197-6.818-15.196-15.197-15.196z" fill="#4c241d"/></g><g><circle cx="225.349" cy="216.803" fill="#b5a19c" r="6.942"/><path d="m225.35 227.746c-6.033 0-10.941-4.908-10.941-10.943 0-6.033 4.908-10.941 10.941-10.941s10.941 4.908 10.941 10.941c0 6.035-4.908 10.943-10.941 10.943zm0-13.885c-1.621 0-2.941 1.32-2.941 2.941 0 1.623 1.32 2.943 2.941 2.943s2.941-1.32 2.941-2.943c0-1.62-1.32-2.941-2.941-2.941z" fill="#4c241d"/></g><path d="m262 202h-8c-2.209 0-4-1.791-4-4s1.791-4 4-4h8c2.209 0 4 1.791 4 4s-1.791 4-4 4z" fill="#4c241d"/><g><path d="m158 182h64l-48-24h-16" fill="#c1dbdc"/><path d="m222 186h-64c-2.209 0-4-1.791-4-4s1.791-4 4-4h47.057l-32-16h-15.057c-2.209 0-4-1.791-4-4s1.791-4 4-4h16c.621 0 1.234.145 1.789.422l48 24c1.658.83 2.529 2.691 2.104 4.498-.426 1.805-2.038 3.08-3.893 3.08z" fill="#4c241d"/></g><g fill="#4c241d"><path d="m259.656 163.656c-1.023 0-2.047-.391-2.828-1.172l-11.312-11.312c-1.562-1.562-1.562-4.094 0-5.656s4.094-1.562 5.656 0l11.312 11.312c1.562 1.562 1.562 4.094 0 5.656-.781.782-1.804 1.172-2.828 1.172z"/><path d="m248.344 163.656c-1.023 0-2.047-.391-2.828-1.172-1.562-1.562-1.562-4.094 0-5.656l11.312-11.312c1.562-1.562 4.094-1.562 5.656 0s1.562 4.094 0 5.656l-11.312 11.312c-.781.782-1.805 1.172-2.828 1.172z"/><path d="m262.605 60.391c0 2.362-1.914 4.277-4.276 4.277s-4.276-1.915-4.276-4.277 1.914-4.276 4.276-4.276c2.361 0 4.276 1.915 4.276 4.276z"/></g><g><path d="m146 38c-61.856 0-112 50.144-112 112s50.144 112 112 112" fill="#9dc1e4"/><path d="m146 266c-63.963 0-116-52.037-116-116s52.037-116 116-116c2.209 0 4 1.791 4 4s-1.791 4-4 4c-59.551 0-108 48.449-108 108s48.449 108 108 108c2.209 0 4 1.791 4 4s-1.791 4-4 4z" fill="#4c241d"/></g><g><path d="m44.926 101.705 5.074 20.295 20 4 16 16h24v-12l-20-4-20-16v-24l24 8 12-12-13.515-30.408c-20.654 11.255-37.368 28.824-47.559 50.113z" fill="#6b4f5b"/><path d="m110 146h-24c-1.061 0-2.078-.422-2.828-1.172l-15.145-15.143-18.812-3.764c-1.516-.303-2.721-1.451-3.096-2.951l-5.074-20.295c-.227-.904-.129-1.857.273-2.697 10.465-21.861 27.955-40.292 49.252-51.898.979-.537 2.135-.635 3.197-.277 1.059.359 1.918 1.145 2.371 2.164l13.516 30.408c.674 1.514.344 3.283-.826 4.453l-12 12c-1.07 1.072-2.65 1.443-4.094.967l-18.734-6.246v16.529l17.738 14.189 19.047 3.811c1.869.373 3.215 2.016 3.215 3.922v12c0 2.209-1.791 4-4 4zm-22.344-8h18.344v-4.721l-16.785-3.357c-.627-.125-1.215-.398-1.713-.799l-20-16c-.949-.758-1.502-1.908-1.502-3.123v-24c0-1.285.617-2.494 1.662-3.244 1.041-.756 2.383-.955 3.604-.551l21.654 7.219 8.309-8.311-10.602-23.851c-17.713 10.621-32.303 26.39-41.467 44.884l4.105 16.428 17.52 3.504c.773.154 1.484.535 2.043 1.094z" fill="#4c241d"/></g><path d="m106 102c-1.023 0-2.047-.391-2.828-1.172-1.562-1.562-1.562-4.094 0-5.656l4-4c1.562-1.562 4.094-1.562 5.656 0s1.562 4.094 0 5.656l-4 4c-.781.781-1.805 1.172-2.828 1.172z" fill="#4c241d"/><path d="m113.996 122c-.6 0-1.211-.135-1.785-.422l-8-4c-1.977-.988-2.777-3.391-1.789-5.367.988-1.975 3.389-2.779 5.367-1.789l8 4c1.977.988 2.777 3.391 1.789 5.367-.701 1.402-2.113 2.211-3.582 2.211z" fill="#4c241d"/><path d="m130 118c-1.023 0-2.047-.391-2.828-1.172-1.562-1.562-1.562-4.094 0-5.656l4-4c1.562-1.562 4.094-1.562 5.656 0s1.562 4.094 0 5.656l-4 4c-.781.781-1.805 1.172-2.828 1.172z" fill="#4c241d"/><g><path d="m146 146h-1.061c-1.586 0-3.036.896-3.745 2.314l-3.436 6.872c-.878 1.755-2.857 2.666-4.76 2.189l-6.167-1.542c-1.669-.417-3.423.229-4.422 1.628l-12.977 18.167c-.397.556-.924 1.006-1.535 1.311l-19.706 9.853c-2.068 1.034-2.906 3.549-1.873 5.617l12.782 25.564c.381.762.521 1.622.4 2.465l-.656 4.593c-.36 2.522 1.597 4.779 4.145 4.779.827 0 1.635-.245 2.323-.703l7.033-4.689c.688-.458 1.496-.703 2.323-.703h3.688c2.312 0 4.187-1.875 4.187-4.187v-.769c0-2.312 1.875-4.187 4.187-4.187h19.27" fill="#6b4f5b"/><path d="m102.988 233.809c-2.373 0-4.627-1.029-6.184-2.822s-2.256-4.17-1.922-6.52l.658-4.596-12.801-25.67c-2.018-4.041-.375-8.967 3.664-10.984l19.705-9.854 13.045-18.225c1.963-2.754 5.365-4.012 8.645-3.186l6.17 1.541 3.648-6.969c1.396-2.791 4.201-4.525 7.322-4.525h1.062c2.209 0 4 1.791 4 4s-1.791 4-4 4h-1.061l-3.604 6.975c-1.73 3.459-5.555 5.209-9.309 4.281l-6.166-1.541-13.176 18.238c-.77 1.082-1.807 1.971-2.998 2.566l-19.707 9.854 12.697 25.811c.748 1.498 1.02 3.166.781 4.822l-.656 4.592 7.322-4.508c1.346-.898 2.918-1.375 4.541-1.375h3.689l.188-.957c0-4.514 3.672-8.188 8.186-8.188h19.273c2.209 0 4 1.791 4 4s-1.791 4-4 4h-19.271l-.186.957c0 4.514-3.674 8.188-8.188 8.188h-3.689l-7.137 4.719c-1.345.899-2.918 1.376-4.541 1.376z" fill="#4c241d"/></g><path d="m170 158h8v24h-8z" fill="#4c241d"/><path d="m266 242h-108c-2.209 0-4-1.791-4-4s1.791-4 4-4h108c2.209 0 4 1.791 4 4s-1.791 4-4 4z" fill="#4c241d"/><g><circle cx="206" cy="96" fill="#00ccca" r="34"/><path d="m206 134c-20.953 0-38-17.047-38-38s17.047-38 38-38 38 17.047 38 38-17.047 38-38 38zm0-68c-16.543 0-30 13.457-30 30s13.457 30 30 30 30-13.457 30-30-13.457-30-30-30z" fill="#4c241d"/></g><path d="m201.996 118c-.6 0-1.211-.135-1.785-.422-1.977-.988-2.777-3.391-1.789-5.367l5.105-10.211h-5.527c-1.441 0-2.771-.775-3.48-2.029-.711-1.254-.691-2.793.051-4.029l12-20c1.135-1.896 3.588-2.508 5.488-1.371 1.895 1.137 2.508 3.594 1.371 5.488l-8.366 13.941h4.936c1.387 0 2.674.719 3.402 1.896.729 1.18.795 2.652.176 3.893l-8 16c-.701 1.402-2.113 2.211-3.582 2.211z" fill="#4c241d"/></g></svg>