<svg id="Capa_1" enable-background="new 0 0 511 511" height="512" viewBox="0 0 511 511" width="512" xmlns="http://www.w3.org/2000/svg" xmlns:xlink="http://www.w3.org/1999/xlink"><linearGradient id="SVGID_1_" gradientUnits="userSpaceOnUse" x1="255.5" x2="255.5" y1="55.5" y2="313.5"><stop offset=".00000083866" stop-color="#96d1f3"/><stop offset="1" stop-color="#ccfff4"/></linearGradient><linearGradient id="lg1"><stop offset=".00000036422" stop-color="#a8abff"/><stop offset="1" stop-color="#fac8ff"/></linearGradient><linearGradient id="SVGID_2_" gradientUnits="userSpaceOnUse" x1="255.5" x2="255.5" xlink:href="#lg1" y1="183.5" y2="283.5"/><linearGradient id="SVGID_3_" gradientUnits="userSpaceOnUse" x1="217.994" x2="293.006" xlink:href="#lg1" y1="17.537" y2="147.463"/><linearGradient id="Outline_1_" gradientUnits="userSpaceOnUse" x1="255.5" x2="255.5" y1="0" y2="511"><stop offset=".00000011981" stop-color="#174fa3"/><stop offset="1" stop-color="#b044af"/></linearGradient><g><g id="Filled_26_"><path d="m380.5 473.5v30h-250v-30h39l30-68h112l30 68z" fill="#fff"/><path d="m503.5 313.5v-228c0-16.569-13.431-30-30-30h-436c-16.569 0-30 13.431-30 30v228z" fill="url(#SVGID_1_)"/><path d="m7.5 313.5v62c0 16.569 13.431 30 30 30h436c16.569 0 30-13.431 30-30v-62z" fill="#fff"/><path d="m425.5 283.5h-340c-11.046 0-20-8.954-20-20v-60c0-11.046 8.954-20 20-20h340c11.046 0 20 8.954 20 20v60c0 11.046-8.954 20-20 20z" fill="url(#SVGID_2_)"/><circle cx="255.5" cy="82.5" fill="url(#SVGID_3_)" r="75"/><path d="m274.172 89.118c3.934-4.418 6.328-10.237 6.328-16.618v-10c0-13.807-11.193-25-25-25s-25 11.193-25 25v10c0 6.381 2.394 12.2 6.328 16.618-18.362 7.399-31.328 25.371-31.328 46.382v2.887c13.27 11.88 30.787 19.113 50 19.113s36.73-7.233 50-19.113v-2.887c0-21.011-12.966-38.983-31.328-46.382z" fill="#fff"/></g><path id="Outline_26_" d="m473.5 48h-143.089c-13.087-28.304-41.734-48-74.911-48s-61.824 19.696-74.911 48h-143.089c-20.678 0-37.5 16.822-37.5 37.5v290c0 20.678 16.822 37.5 37.5 37.5h150.494l-23.382 53h-41.612v45h265v-45h-41.611l-23.382-53h150.493c20.678 0 37.5-16.822 37.5-37.5v-290c0-20.678-16.822-37.5-37.5-37.5zm-218-33c54.497 0 86.168 61.394 55.593 105.724-3.803-14.449-13.104-26.875-26.097-34.601 1.923-4.146 3.004-8.76 3.004-13.623v-10c0-17.921-14.58-32.5-32.5-32.5s-32.5 14.579-32.5 32.5v10c0 4.863 1.081 9.477 3.004 13.623-12.993 7.726-22.294 20.152-26.097 34.601-30.576-44.331 1.097-105.724 55.593-105.724zm0 90c7.573 0 14.544-2.611 20.076-6.97 13.585 7.251 22.197 21.236 22.413 36.87-11.611 9.432-26.398 15.1-42.489 15.1s-30.878-5.668-42.489-15.101c.216-15.634 8.828-29.618 22.413-36.87 5.532 4.36 12.503 6.971 20.076 6.971zm-17.5-32.5v-10c0-9.649 7.851-17.5 17.5-17.5s17.5 7.851 17.5 17.5v10c0 9.649-7.851 17.5-17.5 17.5s-17.5-7.851-17.5-17.5zm135 408.5v15h-235v-15zm-43.006-15h-148.988l23.382-53h102.223zm166.006-90.5c0 12.406-10.093 22.5-22.5 22.5-18.96 0-406.875 0-436 0-12.407 0-22.5-10.094-22.5-22.5v-54.5h481zm0-69.5h-481v-220.5c0-12.406 10.093-22.5 22.5-22.5h137.849c-12.677 52.096 27.022 102 80.151 102 53.199 0 92.814-49.962 80.151-102h137.849c12.407 0 22.5 10.094 22.5 22.5zm-240.5 76c12.407 0 22.5-10.094 22.5-22.5s-10.093-22.5-22.5-22.5-22.5 10.094-22.5 22.5 10.093 22.5 22.5 22.5zm0-30c9.926 0 9.916 15 0 15-4.136 0-7.5-3.364-7.5-7.5s3.364-7.5 7.5-7.5zm-10.252-127.004-14.74 8.504 14.74 8.504-7.496 12.992-14.752-8.511v17.015h-15v-17.015l-14.752 8.511-7.496-12.992 14.74-8.504-14.74-8.504 7.496-12.992 14.752 8.511v-17.015h15v17.015l14.752-8.511zm80 0-14.74 8.504 14.74 8.504-7.496 12.992-14.752-8.511v17.015h-15v-17.015l-14.752 8.511-7.496-12.992 14.74-8.504-14.74-8.504 7.496-12.992 14.752 8.511v-17.015h15v17.015l14.752-8.511zm80 0-14.74 8.504 14.74 8.504-7.496 12.992-14.752-8.511v17.015h-15v-17.015l-14.752 8.511-7.496-12.992 14.74-8.504-14.74-8.504 7.496-12.992 14.752 8.511v-17.015h15v17.015l14.752-8.511zm-240 0-14.74 8.504 14.74 8.504-7.496 12.992-14.752-8.511v17.015h-15v-17.015l-14.752 8.511-7.496-12.992 14.74-8.504-14.74-8.504 7.496-12.992 14.752 8.511v-17.015h15v17.015l14.752-8.511zm260.252-48.996h-340c-15.164 0-27.5 12.337-27.5 27.5v60c0 15.163 12.336 27.5 27.5 27.5h340c15.164 0 27.5-12.337 27.5-27.5v-60c0-15.163-12.336-27.5-27.5-27.5zm12.5 87.5c0 6.893-5.607 12.5-12.5 12.5h-340c-6.893 0-12.5-5.607-12.5-12.5v-60c0-6.893 5.607-12.5 12.5-12.5h340c6.893 0 12.5 5.607 12.5 12.5z" fill="url(#Outline_1_)"/></g></svg>